<?xml version="1.0" encoding="UTF-8" standalone="no"?>
<svg 
   width="631.91998pt"
   height="33.119999pt"
   viewBox="0 0 631.91998 33.119999"
   version="1.1"
   id="svg52"
   xmlns="http://www.w3.org/2000/svg"
   xmlns:svg="http://www.w3.org/2000/svg" content="%3Cmxfile%20host%3D%22app.diagrams.net%22%20modified%3D%222022-06-14T13%3A54%3A46.351Z%22%20agent%3D%225.0%20(Windows%20NT%2010.0%3B%20Win64%3B%20x64)%20AppleWebKit%2F537.36%20(KHTML%2C%20like%20Gecko)%20Chrome%2F102.0.5005.115%20Safari%2F537.36%22%20etag%3D%22H4eCPi2L1CVQ2-VSUKXh%22%20version%3D%2220.0.1%22%20type%3D%22device%22%3E%3Cdiagram%20name%3D%22Page-1%22%20id%3D%22fc2ac565-0d4e-3f0d-88b0-a54af1634ed7%22%3E7VhNc5swEP01HNPRBxjrapqPS08%2B5KzCGjQRyCPLxc6vjwDJGI8TOLR0EocL0ttdrXhPuwwENCkPj5pvi18qAxkQlB0C%2BjMgBGNC7a1Bjh0SLVEH5FpkzqkH1uIVHOjd9iKD3cDRKCWN2A7BVFUVpKbDXCzXWtVDt42Sw6xbnsMgqAHWKZd%2BHz%2BiHn8WmSn8ky1Yb3gCkRcu%2BZLEneE3T19yrfaVy1ipCjpLyf0yLumu4JmqzyB6H9BEK2W6UXlIQDbEes58nDn6jQZ0VZhS2gm2w9b88E4wnhJsn0tDNSD0vfUWccpQGBKOENvQiN0R5lL84XLvU1zm5FLklR1K2Ngsq53R6gUSJZVu7TRpr7Gd%2BUSgDRzOILfTR1AlGH20Ls66wE4edyBx5Lise3GXocOKM11Pp8qdqPy0dE%2BNHTh2JjNFPg9T8f9lio0zVRfCwHrL02Ze2440JKVjzldxc%2Bo3QsprTOaaZ8JS521t7Vp3VRnXo3Bo516Z1LqCvqYNa6%2F5ju6pcf5zQShC34KMVwildDZBJnTdry3I6d37YYXMJ8iE5v61BWFegA8qhMz2DqGI3rogGIUXilwrETqfIuHNK4LZeI3gGRWJbl4REo%2FXCJ6xay1uXhFKptRI%2FFcUsdP%2By7u1nf3boPdv%3C%2Fdiagram%3E%3C%2Fmxfile%3E">
  <defs
     id="defs14">
    <clipPath
       id="clip-0">
      <path
         clip-rule="nonzero"
         d="M 0 0 L 631.921875 0 L 631.921875 32.988281 L 0 32.988281 Z M 0 0 "
         id="path2" />
    </clipPath>
    <clipPath
       id="clip-1">
      <path
         clip-rule="nonzero"
         d="M 0 0 L 631.921875 0 L 631.921875 17 L 0 17 Z M 0 0 "
         id="path5" />
    </clipPath>
    <clipPath
       id="clip-2">
      <path
         clip-rule="nonzero"
         d="M 0 15 L 631.921875 15 L 631.921875 32 L 0 32 Z M 0 15 "
         id="path8" />
    </clipPath>
    <clipPath
       id="clip-3">
      <path
         clip-rule="nonzero"
         d="M 527 14 L 631.921875 14 L 631.921875 32 L 527 32 Z M 527 14 "
         id="path11" />
    </clipPath>
  </defs>
  <g
     clip-path="url(#clip-0)"
     id="g18">
    <path
       fill-rule="nonzero"
       fill="#ffffff"
       fill-opacity="1"
       d="M 0,0 H 632 V 32.988281 H 0 Z m 0,0"
       id="path16" />
  </g>
  <path
     fill-rule="nonzero"
     fill="rgb(100%, 100%, 100%)"
     fill-opacity="1"
     d="M 1.125 1.125 L 630.875 1.125 L 630.875 16.117188 L 1.125 16.117188 Z M 1.125 1.125 "
     id="path20" />
  <g
     clip-path="url(#clip-1)"
     id="g24">
    <path
       fill="none"
       stroke-width="1"
       stroke-linecap="butt"
       stroke-linejoin="miter"
       stroke="#cccccc"
       stroke-opacity="1"
       stroke-miterlimit="4"
       d="M 1.000593,1.000593 H 840.99945 V 20.998085 H 1.000593 Z m 0,0"
       transform="matrix(0.749703,0,0,0.749703,0.374852,0.374852)"
       id="path22" />
  </g>
  <path
     fill-rule="nonzero"
     fill="rgb(100%, 100%, 100%)"
     fill-opacity="1"
     d="M 1.125 16.117188 L 630.875 16.117188 L 630.875 31.113281 L 1.125 31.113281 Z M 1.125 16.117188 "
     id="path26" />
  <g
     clip-path="url(#clip-2)"
     id="g30">
    <path
       fill="none"
       stroke-width="1"
       stroke-linecap="butt"
       stroke-linejoin="miter"
       stroke="#cccccc"
       stroke-opacity="1"
       stroke-miterlimit="4"
       d="M 1.000593,20.998085 H 840.99945 V 41.000787 H 1.000593 Z m 0,0"
       transform="matrix(0.749703,0,0,0.749703,0.374852,0.374852)"
       id="path28" />
  </g>
  <path
     fill-rule="nonzero"
     fill="rgb(79.998779%, 79.998779%, 79.998779%)"
     fill-opacity="1"
     stroke-width="2"
     stroke-linecap="butt"
     stroke-linejoin="miter"
     stroke="rgb(59.999084%, 59.999084%, 59.999084%)"
     stroke-opacity="1"
     stroke-miterlimit="4"
     d="M 1.000396 1.000396 L 211.00011 1.000396 L 211.00011 20.997887 L 1.000396 20.997887 Z M 1.000396 1.000396 "
     transform="matrix(0.749703, 0, 0, 0.749703, 0, 0)"
     id="path32" />
  <path
     fill-rule="nonzero"
     fill="rgb(79.998779%, 79.998779%, 79.998779%)"
     fill-opacity="1"
     stroke-width="2"
     stroke-linecap="butt"
     stroke-linejoin="miter"
     stroke="rgb(59.999084%, 59.999084%, 59.999084%)"
     stroke-opacity="1"
     stroke-miterlimit="4"
     d="M 1.000396 20.997887 L 334.001878 20.997887 L 334.001878 41.000589 L 1.000396 41.000589 Z M 1.000396 20.997887 "
     transform="matrix(0.749703, 0, 0, 0.749703, 0, 0)"
     id="path34" />
  <path
     fill-rule="nonzero"
     fill="rgb(79.998779%, 79.998779%, 79.998779%)"
     fill-opacity="1"
     stroke-width="2"
     stroke-linecap="butt"
     stroke-linejoin="miter"
     stroke="rgb(59.999084%, 59.999084%, 59.999084%)"
     stroke-opacity="1"
     stroke-miterlimit="4"
     d="M 211.00011 1.000396 L 424.001011 1.000396 L 424.001011 20.997887 L 211.00011 20.997887 Z M 211.00011 1.000396 "
     transform="matrix(0.749703, 0, 0, 0.749703, 0, 0)"
     id="path36" />
  <path
     fill-rule="nonzero"
     fill="rgb(79.998779%, 79.998779%, 79.998779%)"
     fill-opacity="1"
     stroke-width="2"
     stroke-linecap="butt"
     stroke-linejoin="miter"
     stroke="rgb(59.999084%, 59.999084%, 59.999084%)"
     stroke-opacity="1"
     stroke-miterlimit="4"
     d="M 334.001878 20.997887 L 573.99783 20.997887 L 573.99783 41.000589 L 334.001878 41.000589 Z M 334.001878 20.997887 "
     transform="matrix(0.749703, 0, 0, 0.749703, 0, 0)"
     id="path38" />
  <path
     fill-rule="nonzero"
     fill="rgb(79.998779%, 79.998779%, 79.998779%)"
     fill-opacity="1"
     stroke-width="2"
     stroke-linecap="butt"
     stroke-linejoin="miter"
     stroke="rgb(59.999084%, 59.999084%, 59.999084%)"
     stroke-opacity="1"
     stroke-miterlimit="4"
     d="M 424.001011 1.000396 L 653.998217 1.000396 L 653.998217 20.997887 L 424.001011 20.997887 Z M 424.001011 1.000396 "
     transform="matrix(0.749703, 0, 0, 0.749703, 0, 0)"
     id="path40" />
  <path
     fill-rule="nonzero"
     fill="rgb(79.998779%, 79.998779%, 79.998779%)"
     fill-opacity="1"
     stroke-width="2"
     stroke-linecap="butt"
     stroke-linejoin="miter"
     stroke="rgb(59.999084%, 59.999084%, 59.999084%)"
     stroke-opacity="1"
     stroke-miterlimit="4"
     d="M 573.99783 20.997887 L 704.002367 20.997887 L 704.002367 41.000589 L 573.99783 41.000589 Z M 573.99783 20.997887 "
     transform="matrix(0.749703, 0, 0, 0.749703, 0, 0)"
     id="path42" />
  <path
     fill-rule="nonzero"
     fill="rgb(79.998779%, 79.998779%, 79.998779%)"
     fill-opacity="1"
     stroke-width="2"
     stroke-linecap="butt"
     stroke-linejoin="miter"
     stroke="rgb(59.999084%, 59.999084%, 59.999084%)"
     stroke-opacity="1"
     stroke-miterlimit="4"
     d="M 653.998217 1.000396 L 794.0015 1.000396 L 794.0015 20.997887 L 653.998217 20.997887 Z M 653.998217 1.000396 "
     transform="matrix(0.749703, 0, 0, 0.749703, 0, 0)"
     id="path44" />
  <path
     fill-rule="nonzero"
     fill="rgb(79.998779%, 79.998779%, 79.998779%)"
     fill-opacity="1"
     d="M 527.792969 15.742188 L 630.5 15.742188 L 630.5 30.738281 L 527.792969 30.738281 Z M 527.792969 15.742188 "
     id="path46" />
  <g
     clip-path="url(#clip-3)"
     id="g50">
    <path
       fill="none"
       stroke-width="2"
       stroke-linecap="butt"
       stroke-linejoin="miter"
       stroke="#999999"
       stroke-opacity="1"
       stroke-miterlimit="4"
       d="M 704.00237,20.997887 H 840.99925 V 41.000589 H 704.00237 Z m 0,0"
       transform="scale(0.749703)"
       id="path48" />
  </g>
</svg>
